<?xml version="1.0" encoding="UTF-8" standalone="no"?>
<!-- Created with Inkscape (http://www.inkscape.org/) -->

<svg
   width="820"
   height="462"
   viewBox="0 0 820 462"
   version="1.1"
   id="svg1"
   xml:space="preserve"
   inkscape:version="1.3 (0e150ed6c4, 2023-07-21)"
   sodipodi:docname="Logo.svg"
   inkscape:export-filename="Logo.png"
   inkscape:export-xdpi="96"
   inkscape:export-ydpi="96"
   xmlns:inkscape="http://www.inkscape.org/namespaces/inkscape"
   xmlns:sodipodi="http://sodipodi.sourceforge.net/DTD/sodipodi-0.dtd"
   xmlns="http://www.w3.org/2000/svg"
   xmlns:svg="http://www.w3.org/2000/svg"><sodipodi:namedview
     id="namedview1"
     pagecolor="#ffffff"
     bordercolor="#000000"
     borderopacity="0.25"
     inkscape:showpageshadow="2"
     inkscape:pageopacity="0.0"
     inkscape:pagecheckerboard="0"
     inkscape:deskcolor="#d1d1d1"
     inkscape:document-units="px"
     inkscape:zoom="1.2231707"
     inkscape:cx="456.19143"
     inkscape:cy="342.96112"
     inkscape:window-width="2560"
     inkscape:window-height="1369"
     inkscape:window-x="-8"
     inkscape:window-y="-8"
     inkscape:window-maximized="1"
     inkscape:current-layer="layer1" /><defs
     id="defs1"><rect
       x="416.13161"
       y="238.72383"
       width="100.14956"
       height="69.900298"
       id="rect1" /><linearGradient
       id="gradientFill-1"
       x1="0.74144253"
       x2="590.86259"
       y1="3.6658269"
       y2="593.78698"
       gradientUnits="userSpaceOnUse"
       spreadMethod="pad"
       gradientTransform="scale(1.2219423,0.81836924)"><stop
         offset="0"
         stop-color="rgb(203,206,208)"
         stop-opacity="1"
         id="stop1" /><stop
         offset="1"
         stop-color="rgb(132,131,139)"
         stop-opacity="1"
         id="stop2" /></linearGradient><linearGradient
       id="gradientFill-2"
       x1="301.02603"
       x2="703.06751"
       y1="151.40061"
       y2="553.44209"
       gradientUnits="userSpaceOnUse"
       spreadMethod="pad"
       gradientTransform="scale(0.9899476,1.0101545)"><stop
         offset="0"
         stop-color="rgb(39,109,195)"
         stop-opacity="1"
         id="stop3" /><stop
         offset="1"
         stop-color="rgb(22,92,170)"
         stop-opacity="1"
         id="stop4" /></linearGradient></defs><g
     inkscape:label="Ebene 1"
     inkscape:groupmode="layer"
     id="layer1"><g
       id="g4"
       transform="matrix(0.72334813,0,0,0.72334813,-24.016006,127.32941)">&#10;	<polygon
   fill="#589632"
   points="195,202.37 195,180 216.513,180 198.306,162 176,162 176,183.433 "
   id="polygon1" />&#10;	<path
   fill="#589632"
   d="m 414.246,171.135 v 54.35 c -14.951,10.911 -37.782,18.386 -57.38,18.386 -42.833,0 -75.362,-31.113 -75.362,-72.129 0,-40.813 33.135,-71.725 77.182,-71.725 21.013,0 42.427,8.082 56.773,20.608 l -17.982,22.832 c -10.507,-9.698 -25.052,-15.76 -38.791,-15.76 -25.055,0 -44.451,19.194 -44.451,44.045 0,25.053 19.599,44.249 44.651,44.249 8.486,0 18.589,-3.031 27.681,-7.678 v -37.177 h 27.679 z"
   id="path1" />&#10;	<path
   fill="#589632"
   d="m 442.129,242.456 v -141.43 h 31.922 v 141.43 z"
   id="path2" />&#10;	<path
   fill="#589632"
   d="m 610.831,114.967 -12.324,26.467 c -14.951,-8.89 -32.731,-14.547 -44.045,-14.547 -10.708,0 -17.981,3.839 -17.981,11.517 0,26.064 75.362,11.517 75.16,62.431 0,27.68 -24.045,42.631 -55.36,42.631 -23.236,0 -46.471,-8.89 -62.431,-22.427 l 12.728,-26.063 c 14.548,12.932 35.155,21.215 50.106,21.215 13.134,0 21.013,-4.849 21.013,-13.537 0,-26.669 -75.362,-11.112 -75.362,-61.219 0,-25.659 22.023,-41.823 54.755,-41.823 19.8,-10e-4 39.599,6.061 53.741,15.355 z"
   id="path3" />&#10;	<polygon
   fill="#589632"
   points="264,248 264,226.946 225.617,189 204,189 204,211.34 240.782,248 "
   id="polygon3" />&#10;	<path
   fill="#589632"
   d="m 198.052,216.864 c -3.259,0.75 -6.648,1.157 -10.144,1.157 -25.005,0 -46.271,-20.562 -46.271,-47.222 0,-26.66 21.032,-46.769 46.271,-46.769 25.239,0 45.336,20.108 45.336,46.769 0,4.336 -0.54,8.508 -1.539,12.46 l 23.144,23.14 c 5.967,-10.455 9.305,-22.611 9.305,-35.778 0,-41.09 -32.791,-71.856 -76.714,-71.856 -43.722,0 -76.512,30.564 -76.512,71.856 0,41.494 32.791,72.666 76.512,72.666 11.287,0 21.835,-2.076 31.284,-5.854 z"
   id="path4" />&#10;</g><g
       id="g1"
       transform="matrix(0.28459759,0,0,0.3428005,541.76744,115.07301)"
       style="display:inline"><path
         d="M 361.453,485.937 C 162.329,485.937 0.906,377.828 0.906,244.469 0.906,111.109 162.329,3 361.453,3 560.578,3 722,111.109 722,244.469 722,377.828 560.578,485.937 361.453,485.937 Z M 416.641,97.406 c -151.352,0 -274.047,73.908 -274.047,165.078 0,91.17 122.695,165.078 274.047,165.078 151.351,0 263.046,-50.529 263.046,-165.078 0,-114.513 -111.695,-165.078 -263.046,-165.078 z"
         fill="url(#gradientFill-1)"
         fill-rule="evenodd"
         id="path4-1"
         style="fill:url(#gradientFill-1)" /><path
         d="m 550,377 c 0,0 21.822,6.585 34.5,13 4.399,2.226 12.01,6.668 17.5,12.5 5.378,5.712 8,11.5 8,11.5 L 696,559 557,559.062 492,437 c 0,0 -13.31,-22.869 -21.5,-29.5 -6.832,-5.531 -9.745,-7.5 -16.5,-7.5 -4.702,0 -33.026,0 -33.026,0 L 421,558.974 298,559.026 V 152.938 h 247 c 0,0 112.5,2.029 112.5,109.062 0,107.033 -107.5,115 -107.5,115 z m -53.5,-135.976 -74.463,-0.048 -0.037,69.05 74.5,-0.024 c 0,0 34.5,-0.107 34.5,-35.125 0,-35.722 -34.5,-33.853 -34.5,-33.853 z"
         fill="url(#gradientFill-2)"
         fill-rule="evenodd"
         id="path5"
         style="fill:url(#gradientFill-2)" /></g><text
       xml:space="preserve"
       id="text1"
       style="white-space:pre;shape-inside:url(#rect1);display:inline;fill:#808080"
       transform="translate(30.294399,16.999326)"><tspan
         x="416.13086"
         y="287.3822"
         id="tspan3"><tspan
           style="font-weight:bold;font-size:53.3333px;font-family:Sans;-inkscape-font-specification:'Sans, Bold'"
           id="tspan2">VS.</tspan></tspan></text></g></svg>
